<svg data-name="Calque 2" xmlns="http://www.w3.org/2000/svg" width="159" height="159"><defs><clipPath id="a"><circle data-name="Ellipse 293" cx="79.5" cy="79.5" r="79.5" fill="none"/></clipPath></defs><g data-name="Layer 1"><g data-name="Groupe 140" clip-path="url(#a)"><path data-name="Tracé 869" d="M119.415 129.904h-14.063a170.351 170.351 0 00-2.227-18.337 1.185 1.185 0 00-1.8-.844 4.508 4.508 0 00-1.114.97c1.652 3.412 2.712 48.24 2.712 48.24H59.267v-37.59l31.376-10.776a9.392 9.392 0 10-6.412-17.656c-4.885 1.8-10.362 3.989-12.122 4.779a20.994 20.994 0 00-4.9 2.892l.467.9 17.96-6.448a6.843 6.843 0 018.563 3.715 6.843 6.843 0 01-4.005 9.16l-41.705 14.655c-9.77-.575-6.735-10.327-6.735-10.327s16.795-27.892 18.411-29.041a6.5 6.5 0 012.909-1.275h11.495a20.187 20.187 0 0016.846 0h10.956c17.277 11.258 17.044 46.983 17.044 46.983zM63.272 62.752a19.864 19.864 0 1119.864 19.863 19.864 19.864 0 01-19.864-19.863zm11.71 8.527a1.365 1.365 0 001.8.539c7.417-4.221 13.326-2.856 15.912-1.8a1.652 1.652 0 002.1-.88 1.652 1.652 0 00-1.06-2.3 22.935 22.935 0 00-18.3 2.712 1.293 1.293 0 00-.452 1.729zm-9.734-32.324s2.766-8.549-4.185-12.015a3.43 3.43 0 00-4.382 3.071s7.382 5.8 8.567 9.016zm-23.941-3.576c-3.682 2.911-.718 5.7-.718 5.7h16.164c-4.239-5.555-11.692-8.626-15.446-5.7zm7.471 14.19c-5.119.431-3.79 6-1.455 5.693s7.453-2.622 10.237-2.622a12.231 12.231 0 00-8.711-3.071zm37.716-13.775a.7.7 0 00.79 0c6.232-4.221 9.806.5 10.884 2.3a.665.665 0 00.952.216l.413-.269a.7.7 0 00.18-.97c-5.388-7.615-11.261-3.969-13.236-2.371a.665.665 0 00.036 1.1zm.9 2.963a.7.7 0 00.126 1.149.682.682 0 00.844-.126c3.179-3.466 6.25-.593 7.382.718a.682.682 0 001.006 0 .7.7 0 00.233-.988 6.124 6.124 0 00-9.573-.754z" fill="#1078ad"/></g></g></svg>