<svg data-name="Calque 2" xmlns="http://www.w3.org/2000/svg" width="146.938" height="146.938"><defs><clipPath id="a"><circle data-name="Ellipse 294" cx="73.469" cy="73.469" r="73.469" fill="none"/></clipPath></defs><g data-name="Layer 1"><g data-name="Groupe 141" clip-path="url(#a)"><path data-name="Tracé 870" d="M79.111 85.029l-5.067-7.7c-.33 1.041-.622 1.921-.922 2.824-.5 1.562-1.024 3.106-1.492 4.668a7.514 7.514 0 01-1.283 2.549 6.212 6.212 0 01-4.408 2.325 7.722 7.722 0 01-4.667-1.425c-4.251-2.551-8.5-4.98-12.685-7.583l-8.676-5.206a6.542 6.542 0 01-2.846-3.193 6.2 6.2 0 01-.382-3.471 6.351 6.351 0 013.228-4.46 6.577 6.577 0 013.311-.707 7.791 7.791 0 013.956 1.492l9.144 5.467 5.206 3.054a2.151 2.151 0 00.486.226c.243-.694.469-1.336.677-1.978l1.093-3.384 1.215-4.321c.5-1.527.972-3.071 1.51-4.581s1.111-2.967 1.735-4.425a6.665 6.665 0 01.9-1.562 23.826 23.826 0 015.345-5.05 12.824 12.824 0 014.807-1.944 9.457 9.457 0 016.663 1.44 11.314 11.314 0 013.471 3.019 21.067 21.067 0 011.44 2.412c1.319 2.412 2.655 4.824 3.922 7.253a605.866 605.866 0 014.251 8.225c1.006 2 2.03 3.974 3 5.987s2.065 4.373 3.019 6.577 1.735 3.939 2.62 5.952 1.544 4.043 2.239 6.091a27.872 27.872 0 011.128 3.852 14.63 14.63 0 01.278 4.356 27.762 27.762 0 01-.659 4.3 11.939 11.939 0 01-3.089 5.536c-.226 1.735-.434 3.471-.659 5.05-.174 1.232-.382 2.464-.573 3.713-.087.59-.121 1.2-.208 1.735-.191 1.406-.434 2.828-.625 4.251s-.382 3.158-.607 4.72-.416 2.707-.59 4.061-.4 3.158-.607 4.737a212.945 212.945 0 00-.451 3.471 8.485 8.485 0 000 1.145v27.07a8.676 8.676 0 01-.486 3.228 7.444 7.444 0 01-3.158 3.714 7.1 7.1 0 01-3.9 1.076 7.462 7.462 0 01-6.82-4.72 8.676 8.676 0 01-.677-3.106v-27.553a38.783 38.783 0 01.451-4.2 15.024 15.024 0 01.3-2.134c.208-1.44.434-2.863.642-4.3s.382-3.158.607-4.737.4-2.655.59-3.991a14.9 14.9 0 00.139-2.343 205.155 205.155 0 00-1.232 3.471c-.5 1.406-.972 2.829-1.475 4.251l-1.475 4.113c-.469 1.319-.9 2.655-1.44 3.974a13.344 13.344 0 00-.937 4.512c-.1 3.089-.26 6.178-.382 9.266 0 2.065-.1 4.13-.191 6.195-.121 4.494-.347 8.971-.521 13.483a9.266 9.266 0 01-.416 2.915 7.392 7.392 0 01-4.061 4.321 7.7 7.7 0 01-1.839.538h-1.147a6.663 6.663 0 01-5.969-3.089 7.132 7.132 0 01-1.3-5.345v-.729c.121-3.106.26-6.195.4-9.284v-1.145c.121-2.828.243-5.657.382-8.485v-.868c.121-2.915.26-5.831.382-8.676a9.456 9.456 0 000-1.215 10.255 10.255 0 01.746-4.13c.486-1.44.868-2.915 1.319-4.356s.954-3.037 1.423-4.546l1.51-4.494c.469-1.475.954-2.933 1.406-4.408s.954-3.019 1.44-4.529.92-2.9 1.388-4.338c.33-.989.677-1.961.954-2.933a5.205 5.205 0 00.1-1.267 4.23 4.23 0 000-.469c-.1-2.586-.191-5.206-.295-7.739-.139-3.228-.278-6.455-.434-9.683-.051-.991-.12-1.872-.172-2.813zm-10.62-64.466a18.134 18.134 0 00-26.029 6.039 17.561 17.561 0 00-1.614 14.268 17.353 17.353 0 004.841 7.843 4.234 4.234 0 01.451-.711 2.985 2.985 0 012.447-.989 1.822 1.822 0 011.735 2.512 16.693 16.693 0 01-.937 1.839 18.135 18.135 0 0019.105-30.8zM37.082 57.004a.46.46 0 01-.191.312 2.343 2.343 0 00-.573 3.644 2.655 2.655 0 003.609.833 5.918 5.918 0 001.042-1.123c2 1.059 3.037.469 3.7-.364a2.724 2.724 0 00-.416-3.939 6.834 6.834 0 01.33-.625c.694-1.163 1.406-2.325 2.1-3.471a2.308 2.308 0 00.174-.486h-.139a.45.45 0 00-.3.208l-3.228 4.946.191.33.451-.208a1.891 1.891 0 010 2.551c-.954 1.215-2.1 1.041-3.3.364a3.194 3.194 0 00-.208.312 1.874 1.874 0 01-2.186 1.024 2.429 2.429 0 01-1.816-1.742c-.4-1.128.469-1.735 1.163-2.377l-.451-.347zm.087-.087a7.114 7.114 0 01-.4-1.267 2.238 2.238 0 011.2-1.961 2.134 2.134 0 012.395.312l-.191.5a.92.92 0 001.024-.191c1.093-.972 2.221-1.909 3.332-2.881l.92-.816-.1-.174a2.36 2.36 0 00-.486.191l-1.145.92-2.696 2.12-.174-.121a2.533 2.533 0 00-2.672-1.041 2.481 2.481 0 00-1.944 2.292 2.082 2.082 0 00.92 2.134zm9.475-2.377a14.906 14.906 0 00-.347 5.206 8.676 8.676 0 00.347-5.275zM36.44 59.57l.573.5h.121a1.735 1.735 0 01.469-2.013.555.555 0 00-.312 0 1.631 1.631 0 00-.833 1.544zm1.093-3.228a4.2 4.2 0 010-1.041 3.922 3.922 0 01.434-.9l-.121-.1-.729.642c0 .555-.243 1.128.434 1.406zm0 0z" fill="#1078ad"/></g></g></svg>